<svg width="130" height="39" viewBox="0 0 130 39" fill="none" xmlns="http://www.w3.org/2000/svg">
<g clip-path="url(#clip0_108_36)">
<path d="M20.2168 0.0581942C-1.34498 0.436494 -8.25318 31.6027 12.3726 38.858C12.6693 38.9777 12.9906 39.0238 13.309 38.9924C13.6274 38.961 13.9334 38.853 14.201 38.6776C14.4686 38.5023 14.6898 38.2648 14.8457 37.9854C15.0015 37.706 15.0874 37.3929 15.0961 37.0731V19.8767C14.9661 16.6826 5.08609 20.9323 5.34609 21.1351C5.07743 20.6454 4.87917 20.1202 4.75718 19.5751C11.174 15.4502 15.9112 17.2169 15.9112 17.2169C14.0769 16.3667 10.2211 15.6569 4.74163 18.565C4.86107 16.2214 5.63821 13.9587 6.9841 12.0364C9.2113 10.8966 11.6954 10.3523 14.1952 10.4561C16.695 10.56 19.1253 11.3086 21.2503 12.6292C23.3752 11.3156 25.8021 10.5701 28.298 10.4645C30.794 10.3588 33.2752 10.8965 35.5035 12.026C36.8006 13.9613 37.5852 16.1943 37.7837 18.5156C31.064 15.432 27.9375 16.5123 26.1006 17.3638C26.1006 17.3638 31.1706 15.6101 37.6641 19.5738C37.5683 20.1305 37.3858 20.6687 37.1233 21.1689C35.8714 20.0808 27.5462 17.0518 27.346 19.8858V37.0874C27.3547 37.4065 27.4402 37.7188 27.5955 37.9977C27.7508 38.2765 27.9711 38.5138 28.2378 38.6892C28.5045 38.8646 28.8095 38.9729 29.1271 39.005C29.4447 39.0371 29.7653 38.9921 30.0617 38.8736C51.6495 31.1074 42.9408 -1.56161 20.2168 0.0581942Z" fill="#2130AC"/>
<path d="M20.9651 20.3758C22.0688 19.1044 21.8114 27.7924 21.9232 28.5841C21.8179 29.3706 22.0623 38.0961 20.9651 36.8052C20.3567 31.3457 20.3567 25.8354 20.9651 20.3758V20.3758Z" fill="#FF4C45"/>
<path d="M17.8463 23.1814C18.7446 22.092 18.4639 28.0071 18.5653 28.5765C18.46 29.1732 18.7537 35.0336 17.8463 33.9832C17.4666 30.3926 17.4666 26.772 17.8463 23.1814V23.1814Z" fill="#FF4C45"/>
<path d="M24.1461 23.1643C25.0288 22.0853 24.7805 28.0029 24.891 28.5775C24.7779 29.1794 25.0366 35.032 24.1461 33.9907C23.7775 30.3913 23.7775 26.7637 24.1461 23.1643Z" fill="#FF4C45"/>
<path d="M50.4365 11.4337C50.4346 11.3657 50.4468 11.298 50.4725 11.2351C50.4982 11.1721 50.5368 11.1152 50.5857 11.068C50.6346 11.0207 50.6929 10.9842 50.7568 10.9608C50.8206 10.9373 50.8886 10.9275 50.9565 10.9319C51.2464 11.1919 65.5503 10.3209 65.0628 11.4337C64.9887 11.7457 65.2136 13.6164 64.9211 13.8335C64.9211 14.1949 59.6132 13.9284 59.4 14.0051C59.2609 14.3951 59.6691 28.9707 59.2583 29.2645C59.0893 29.5895 56.9066 29.3607 56.6115 29.4257C55.4415 30.0627 56.3424 14.1975 56.0746 14.0051C55.9524 13.9622 50.4469 14.1351 50.5821 13.8634C50.2909 13.658 50.4937 11.7535 50.4365 11.4337Z" fill="#0F0F54"/>
<path d="M70.4955 16.1858C70.2251 15.7958 68.4922 16.0558 68.1061 15.9856C68.0142 15.9802 67.9222 15.9947 67.8364 16.0281C67.7505 16.0615 67.6729 16.1131 67.6089 16.1792C67.5448 16.2454 67.4958 16.3246 67.4652 16.4114C67.4346 16.4983 67.4231 16.5907 67.4315 16.6825C67.7487 17.0283 66.6645 30.2466 68.1153 29.4224C68.7185 29.2612 70.8452 29.8878 70.7334 28.736V16.6759C70.7297 16.5823 70.7067 16.4904 70.6657 16.406C70.6248 16.3217 70.5669 16.2467 70.4955 16.1858V16.1858Z" fill="#0F0F54"/>
<path d="M70.5407 11.1045C70.2651 10.7756 68.488 10.9927 68.1071 10.9316C68.0144 10.9192 67.9201 10.9286 67.8317 10.959C67.7433 10.9894 67.6631 11.0399 67.5977 11.1066C67.5322 11.1734 67.4832 11.2544 67.4545 11.3434C67.4258 11.4324 67.4182 11.5269 67.4324 11.6193C67.5559 12.2186 67.0177 14.1621 68.1188 14.0633C68.7493 13.945 70.8059 14.4884 70.7344 13.3288C70.6681 12.9505 70.9086 11.3645 70.5407 11.1045Z" fill="#FF4C45"/>
<path d="M74.978 15.247C75.368 14.6711 76.4391 14.9948 77.0124 14.9155C77.9042 14.8947 77.7327 16.2636 77.8471 16.8252C81.1673 12.3064 88.2704 15.546 87.7556 20.9852C87.675 21.2699 87.9636 29.2467 87.5619 29.2259C87.3019 29.6159 85.66 29.3559 85.2635 29.4326C84.6512 29.4248 84.5108 29.2506 84.4978 28.6526C84.4276 27.8102 84.6928 20.4626 84.2911 19.8594C83.489 17.2412 79.6553 17.2204 78.4619 19.5734C77.6819 20.9501 78.4814 27.571 78.0225 29.053C77.8496 29.742 76.0348 29.3195 75.5707 29.43C75.0923 29.43 74.8427 29.209 74.8401 28.7436C75.0052 28.2912 74.562 15.6435 74.978 15.247Z" fill="#0F0F54"/>
<path d="M102.275 28.4004C102.327 28.0674 102.354 27.731 102.356 27.3941C98.326 32.1391 90.279 28.0208 90.6313 22.1383C90.2907 16.1752 98.3949 11.902 102.504 16.7666C102.703 16.1166 102.405 14.8907 103.361 14.8816C104.064 14.9856 105.432 14.5164 105.522 15.5564C105.298 18.0628 106.079 28.3197 104.916 30.4647C103.406 34.1047 98.8746 35.2748 95.3386 34.1334C94.4988 33.7434 92.3356 33.2377 92.892 32.0261C93.2469 31.6933 93.763 30.2308 94.4182 30.5298C96.8167 32.2978 101.775 31.8753 102.275 28.4004ZM93.8423 22.1383C93.7851 27.9974 102.335 28.0012 102.494 22.2409C102.558 16.3701 93.8137 16.1583 93.8423 22.1383V22.1383Z" fill="#0F0F54"/>
<path d="M108.962 11.6744C108.843 10.5317 111.028 11.1297 111.613 10.988C111.785 11.0006 111.947 11.0787 112.063 11.2064C112.18 11.334 112.244 11.5015 112.241 11.6744V28.7434C112.249 28.8386 112.236 28.9343 112.204 29.0241C112.171 29.1138 112.119 29.1954 112.052 29.2634C111.786 29.6183 110.01 29.3557 109.634 29.435C109.149 29.435 108.965 29.214 108.96 28.7486C108.962 28.7434 108.962 11.6744 108.962 11.6744Z" fill="#0F0F54"/>
<path d="M130 28.7502C129.959 29.8019 128.232 29.3156 127.577 29.4248C126.714 29.4755 126.859 28.3199 126.789 27.7687C122.507 32.2771 114.624 28.056 114.905 22.1579C114.582 16.1649 122.889 11.897 126.971 16.7863C127.119 16.2416 126.939 14.7713 127.84 14.8792C128.466 14.9533 129.947 14.5854 130 15.5539V28.7502ZM118.116 22.1553C118.065 28.0794 126.742 27.9871 126.767 22.1553C126.722 16.3365 118.081 16.2429 118.116 22.1618V22.1553Z" fill="#0F0F54"/>
</g>
<defs>
<clipPath id="clip0_108_36">
<rect width="130" height="39" fill="white"/>
</clipPath>
</defs>
</svg>
