<svg width="57" height="57" viewBox="0 0 57 57" fill="none" xmlns="http://www.w3.org/2000/svg">
<path d="M56.875 28.4375C56.875 44.1431 44.1431 56.875 28.4375 56.875C12.7319 56.875 0 44.1431 0 28.4375C0 12.7319 12.7319 0 28.4375 0C44.1431 0 56.875 12.7319 56.875 28.4375Z" fill="white"/>
<path d="M18.1611 21.7405C18.1611 19.3172 20.1256 17.3528 22.5489 17.3528C24.9722 17.3528 26.9366 19.3172 26.9366 21.7405V35.1344C26.9366 37.5576 24.9722 39.5221 22.5489 39.5221C20.1256 39.5221 18.1611 37.5576 18.1611 35.1344V21.7405Z" fill="#0F0F54"/>
<path d="M29.9385 21.7405C29.9385 19.3172 31.9029 17.3528 34.3262 17.3528C36.7495 17.3528 38.714 19.3172 38.714 21.7405V35.1344C38.714 37.5576 36.7495 39.5221 34.3262 39.5221C31.9029 39.5221 29.9385 37.5576 29.9385 35.1344V21.7405Z" fill="#0F0F54"/>
</svg>
